<?xml version="1.0" encoding="UTF-8" standalone="no"?>
<!DOCTYPE svg PUBLIC "-//W3C//DTD SVG 1.1//EN" "http://www.w3.org/Graphics/SVG/1.1/DTD/svg11.dtd">
<svg width="100%" height="100%" viewBox="0 0 614 484" version="1.1" xmlns="http://www.w3.org/2000/svg" xmlns:xlink="http://www.w3.org/1999/xlink" xml:space="preserve" xmlns:serif="http://www.serif.com/" style="fill-rule:evenodd;clip-rule:evenodd;stroke-miterlimit:10;">
    <g id="Layer-1" serif:id="Layer 1" transform="matrix(1,0,0,1,-3.50137,-4.86543)">
        <g transform="matrix(6.97932,0,0,3.72117,-2599.76,-664.129)">
            <path d="M428.164,280.429L420.091,280.429L410.587,209.881L420.187,209.881L424.315,246.547L424.509,248.851L425.291,248.851L425.581,246.547L429.982,209.881L437.435,209.881L441.836,246.547L442.126,248.851L442.908,248.851L443.101,246.547L447.229,209.881L456.829,209.881L447.325,280.429L439.253,280.429L434.469,247.027L433.898,242.9L433.519,242.9L432.947,247.027L428.164,280.429Z" style="fill-rule:nonzero;"/>
        </g>
        <g transform="matrix(6.97932,0,0,3.72117,-2599.76,-664.129)">
            <path d="M387.634,209.881L387.634,234.549L388.018,234.549L388.497,233.397L397.126,209.881L407.206,209.881L397.702,233.109L408.454,280.429L398.413,280.429L391.213,249.714L390.924,248.275L390.635,248.275L390.056,249.714L387.643,255.473L387.643,280.429L377.275,280.429L377.275,209.881L387.634,209.881Z" style="fill-rule:nonzero;"/>
        </g>
        <g transform="matrix(2.33716,0,0,2.33716,21.6228,60.6956)">
            <path d="M0,0L247.205,0" style="fill:none;stroke:rgb(26,23,27);stroke-width:3px;"/>
        </g>
        <g transform="matrix(2.33716,0,0,2.33716,21.6228,433.035)">
            <path d="M0,0L247.205,0" style="fill:none;stroke:rgb(26,23,27);stroke-width:3px;"/>
        </g>
    </g>
</svg>
