<?xml version="1.0" encoding="UTF-8" standalone="no"?><!DOCTYPE svg PUBLIC "-//W3C//DTD SVG 1.1//EN" "http://www.w3.org/Graphics/SVG/1.1/DTD/svg11.dtd"><svg width="100%" height="100%" viewBox="0 0 295 310" version="1.1" xmlns="http://www.w3.org/2000/svg" xmlns:xlink="http://www.w3.org/1999/xlink" xml:space="preserve" xmlns:serif="http://www.serif.com/" style="fill-rule:evenodd;clip-rule:evenodd;stroke-linecap:square;stroke-linejoin:round;"><path d="M50,50l0,210l18.633,0m10.549,-76.216c12.414,0.024 15.529,-0.735 15.582,2.771c0.597,39.451 41.186,73.791 90.559,73.791c16.144,0 41.754,0.286 59.593,0.114m-166.043,-105.46l46.127,0m-0.1,29.303c0,24.686 27.185,45.697 60.1,45.697m-135,-180l18.451,0m56.549,105c0,-57.601 54.17,-105 120,-105m-45,90l0,60m45,0l0,-120m-40.549,150l40.549,-0.088m-225,-209.912l0,270l255,0l0,-270l-255,0" style="fill:none;stroke:#fff;stroke-width:22.03px;"/></svg>